<svg width="116" height="106" viewBox="0 0 116 106" fill="none" xmlns="http://www.w3.org/2000/svg">
<path fill-rule="evenodd" clip-rule="evenodd" d="M12.7472 34.6939V0H25.4945V1.02041H16.0615V9.18367H18.866C18.866 9.18367 29.3182 12.2449 29.5731 22.449C29.8152 32.1398 18.9921 34.6939 18.9921 34.6939H12.7472ZM18.866 10.2041H16.0615V33.6735H18.9921C18.9921 33.6735 26.2594 31.6327 26.2594 22.449C26.2594 12.5 18.866 10.2041 18.866 10.2041Z" fill="url(#paint0_linear_1_5)"/>
<path d="M68.5802 39.0306C68.5802 39.0306 68.5802 44.898 59.6571 44.898C55.7484 44.898 50.1138 41.4109 45.6934 38.6752C45.1497 38.3388 44.6823 38.0408 44.2627 37.7733C42.5309 36.6693 41.6141 36.0849 39.5165 35.4592C37.398 34.8272 34.6725 34.6939 34.6725 34.6939V0H47.9297V1.02041H37.9868V12.7551H44.8703V13.6172H37.9868V33.6735C37.9868 33.6735 41.52 33.644 44.1055 34.4388C46.5296 35.184 48.139 36.2846 49.8726 37.4702C50.0928 37.6207 50.315 37.7727 50.541 37.9254C52.0221 38.9261 53.6828 40.048 56.0879 41.3265C64.2462 45.6633 68.5802 39.0306 68.5802 39.0306Z" fill="url(#paint1_linear_1_5)"/>
<path fill-rule="evenodd" clip-rule="evenodd" d="M52.5186 0V34.6939H55.8329V25.5102H58.6374C60.1671 25.5102 68.8164 22.5624 69.0909 12.2449C69.3486 2.55445 60.1677 0 58.7635 0H52.5186ZM58.6374 24.4898H55.8329V1.02041H58.7635C58.7635 1.02041 66.0308 3.06122 66.0308 12.2449C66.0308 22.1939 58.6374 24.4898 58.6374 24.4898Z" fill="url(#paint2_linear_1_5)"/>
<path fill-rule="evenodd" clip-rule="evenodd" d="M116 39.2857V73.9796H112.686V65.5612H109.371C108.287 65.6258 105.982 67.0521 103.195 68.7773C98.7741 71.5129 93.1395 75 89.2308 75C80.3077 75 80.3077 69.1327 80.3077 69.1327C80.3077 69.1327 84.6418 75.7653 92.8 71.4286C95.2051 70.15 96.8657 69.0281 98.3468 68.0275C100.353 66.6721 102.03 65.5389 104.782 64.5408C106.056 64.0791 107.332 63.7755 107.332 63.7755C107.332 63.7755 99.6835 61.7347 99.4286 51.5306C99.1865 41.8398 107.587 39.2857 109.245 39.2857H116ZM109.626 63.7755H112.686V40.3061H109.245C109.245 40.3061 102.233 42.3469 102.233 51.5306C102.233 61.4796 109.626 63.7755 109.626 63.7755Z" fill="url(#paint3_linear_1_5)"/>
<path fill-rule="evenodd" clip-rule="evenodd" d="M73.4233 73.9796V39.2857H79.6683C81.0724 39.2857 90.2534 41.8402 89.9956 51.5306C89.7212 61.8481 81.0718 64.7959 79.5421 64.7959H76.7376V73.9796H73.4233ZM76.7376 63.7755H79.5421C79.5421 63.7755 86.9355 61.4796 86.9355 51.5306C86.9355 42.3469 79.6683 40.3061 79.6683 40.3061H76.7376V63.7755Z" fill="url(#paint4_linear_1_5)"/>
<path d="M75.4637 34.6939V0H88.7209V1.02041H78.778V12.7551H85.6615V13.6172H78.778V33.6735H88.7209V34.6939H75.4637Z" fill="url(#paint5_linear_1_5)"/>
<path d="M93.8198 0V34.6939H97.1341V1.02041H107.077V0H93.8198Z" fill="url(#paint6_linear_1_5)"/>
<path d="M10.9626 48.4694L1.01978 73.9796H0L10.5377 47.449L7.13846 39.2857H10.1978L20.5544 65.8774L27.874 47.449L24.4747 39.2857H27.5341L41.0462 73.9796H37.9868L28.2989 48.4694L21.034 67.1089L23.7099 73.9796H20.6506L19.5182 70.9979L18.356 73.9796H17.3363L19.0306 69.7139L10.9626 48.4694Z" fill="url(#paint7_linear_1_5)"/>
<path fill-rule="evenodd" clip-rule="evenodd" d="M69.6009 61.0522C69.9875 68.2395 64.5203 73.6003 57.8919 74.2347C50.7534 75.0834 43.257 69.301 42.8501 61.7347C42.4635 54.5474 47.9298 49.1866 54.5582 48.5522C61.6967 47.7035 69.194 53.4858 69.6009 61.0522ZM66.5416 61.5624C67.4671 68.4236 63.0779 72.973 57.8919 73.4694C51.5297 74.2257 46.835 68.0858 45.9094 61.2245C44.9839 54.3632 49.3722 49.8139 54.5582 49.3175C60.9204 48.5611 65.616 54.7011 66.5416 61.5624Z" fill="url(#paint8_linear_1_5)"/>
<path d="M19 86.0001V85.94H19.228C19.546 85.94 19.582 85.91 19.582 85.622V82.0581C19.582 81.7701 19.546 81.7401 19.228 81.7401H19V81.6861H21.742C21.85 81.6861 21.874 81.6981 21.922 81.7401H21.928L21.904 81.332L21.964 81.326L22.09 83.0841H21.97L21.94 82.664C21.904 82.016 21.382 81.7941 20.746 81.7941H19.948V81.8C20.026 81.872 20.092 81.98 20.092 82.1121V83.66H20.554C21.754 83.66 22.54 84.128 22.54 84.83C22.54 85.5321 21.82 86.0001 20.728 86.0001H19ZM20.092 83.762V85.5741C20.092 85.7121 20.062 85.8081 19.984 85.8801V85.8921H20.602C21.496 85.8921 21.97 85.5201 21.97 84.83C21.97 84.134 21.472 83.762 20.56 83.762H20.092Z" fill="url(#paint9_linear_1_5)"/>
<path d="M24.7371 86.0001V85.9461H24.8391C25.0071 85.9461 25.1031 85.7781 25.2051 85.5741L27.0591 81.6861H27.5691V81.758C27.5691 81.8781 27.5931 82.034 27.6291 82.106L29.1831 85.5741C29.3151 85.8621 29.3391 85.9461 29.5731 85.9461H29.6271V86.0001H28.3671V85.9461H28.8711V85.9341C28.7811 85.9041 28.7151 85.7541 28.6671 85.6521L28.3011 84.83H25.6851L25.3311 85.5741C25.3131 85.622 25.2951 85.6701 25.2951 85.7121C25.2951 85.8501 25.4151 85.9461 25.6131 85.9461H25.9371V86.0001H24.7371ZM25.7391 84.7221H28.2531L27.1311 82.22C27.0831 82.124 27.0771 82.0461 27.0771 81.98H27.0171C27.0171 82.0161 26.9991 82.094 26.9391 82.22L25.7391 84.7221Z" fill="url(#paint10_linear_1_5)"/>
<path d="M32.6614 83.576V83.4741H32.9014C33.4354 83.4741 33.8374 83.0601 33.8374 82.538C33.8374 82.028 33.4834 81.7521 32.9614 81.7521C32.3374 81.7521 32.1154 82.196 32.0794 82.58V82.7781H31.9714V81.704H32.0254V81.944L32.0494 81.9501C32.0734 81.9081 32.1394 81.8481 32.1934 81.8241C32.4034 81.7101 32.7154 81.65 32.9494 81.6441C33.6934 81.6441 34.2454 81.998 34.2454 82.526C34.2454 82.97 33.8074 83.438 33.3814 83.51V83.5161C34.0354 83.5941 34.5454 84.2061 34.5454 84.8361C34.5454 85.5681 33.8674 86.054 32.9494 86.054C32.6014 86.054 32.1574 85.91 31.8334 85.6161L31.9234 85.538C32.2174 85.808 32.6374 85.94 32.9494 85.94C33.6094 85.94 34.0474 85.55 34.0474 84.83C34.0474 84.104 33.5974 83.576 32.9974 83.576H32.6614Z" fill="url(#paint11_linear_1_5)"/>
<path d="M36.859 86.0001V85.9461H36.961C37.129 85.9461 37.225 85.7781 37.327 85.5741L39.181 81.6861H39.691V81.758C39.691 81.8781 39.715 82.034 39.751 82.106L41.305 85.5741C41.437 85.8621 41.461 85.9461 41.695 85.9461H41.749V86.0001H40.489V85.9461H40.993V85.9341C40.903 85.9041 40.837 85.7541 40.789 85.6521L40.423 84.83H37.807L37.453 85.5741C37.435 85.622 37.417 85.6701 37.417 85.7121C37.417 85.8501 37.537 85.9461 37.735 85.9461H38.059V86.0001H36.859ZM37.861 84.7221H40.375L39.253 82.22C39.205 82.124 39.199 82.0461 39.199 81.98H39.139C39.139 82.0161 39.121 82.094 39.061 82.22L37.861 84.7221Z" fill="url(#paint12_linear_1_5)"/>
<path d="M53.4709 84.35L47.8867 84.3501L47.9107 84.188L53.5069 84.188L53.4709 84.35Z" fill="url(#paint13_linear_1_5)"/>
<path d="M62.2218 86.048C60.7518 86.048 59.7738 85.166 59.7738 83.84C59.7738 82.52 60.7518 81.638 62.2218 81.638C63.6798 81.638 64.6578 82.52 64.6578 83.84C64.6578 85.166 63.6798 86.048 62.2218 86.048ZM62.2458 85.94C63.4398 85.94 64.0818 85.244 64.0818 83.954C64.0818 82.52 63.4218 81.746 62.1978 81.746C60.9978 81.746 60.3498 82.442 60.3498 83.732C60.3498 85.166 61.0098 85.94 62.2458 85.94Z" fill="url(#paint14_linear_1_5)"/>
<path d="M67.6328 86V85.946H68.1368C68.4548 85.946 68.4848 85.916 68.4848 85.628V81.794H68.0888C67.4528 81.794 67.2308 81.908 67.2008 82.484L67.1768 82.73L67.0568 82.724L67.1588 81.332L67.2308 81.338L67.2008 81.686H70.2728L70.2428 81.344L70.3148 81.338L70.4108 82.724L70.2908 82.73L70.2728 82.484C70.2248 81.908 70.0148 81.794 69.3848 81.794H69.0008V85.628C69.0008 85.916 69.0308 85.946 69.3488 85.946H69.8408V86H67.6328Z" fill="url(#paint15_linear_1_5)"/>
<path d="M72.2442 85.892H72.7062C73.1862 85.508 73.8522 84.596 73.8642 83.402V82.184C73.8642 81.764 73.8102 81.74 73.3482 81.74H73.2042V81.686H76.4142V81.74H76.1802C75.8622 81.74 75.8262 81.824 75.8262 82.112V85.892H76.4142V87.008H76.1802V86.372C76.1802 86.084 76.1382 86 75.8202 86H72.8382C72.5202 86 72.4842 86.084 72.4842 86.372V87.008H72.2442V85.892ZM73.4322 85.892H75.3162V81.794H74.0322V83.258C74.0322 84.452 73.7562 85.364 73.4322 85.892Z" fill="url(#paint16_linear_1_5)"/>
<path d="M82.135 86V85.946H82.363C82.681 85.946 82.711 85.922 82.711 85.634V82.052C82.711 81.764 82.681 81.74 82.363 81.74H82.135V81.686H83.815V81.752H83.587C83.269 81.752 83.227 81.776 83.227 82.064V85.634C83.227 85.922 83.269 85.946 83.587 85.946H83.815V86H82.135ZM78.775 86V85.94H79.003C79.321 85.94 79.357 85.91 79.357 85.622V82.052C79.357 81.764 79.321 81.74 79.003 81.74H78.775V81.686H80.455V81.74H80.227C79.909 81.74 79.867 81.776 79.867 82.064V83.78H80.371C81.379 83.78 82.051 84.224 82.051 84.89C82.051 85.556 81.379 86 80.371 86H78.775ZM79.867 83.882V85.574C79.867 85.712 79.837 85.808 79.759 85.88V85.892H80.245C81.049 85.892 81.481 85.544 81.481 84.89C81.481 84.236 81.049 83.882 80.245 83.882H79.867Z" fill="url(#paint17_linear_1_5)"/>
<path d="M86.1484 86V85.964H86.2084C86.4784 85.964 86.5804 85.874 86.8024 85.49L87.7024 83.888L86.8444 82.22C86.6464 81.836 86.5144 81.752 86.3344 81.752H86.2564V81.698H87.3904V81.752H87.0304V81.764C87.1264 81.794 87.2884 81.944 87.3664 82.094L88.0924 83.51L88.8724 82.202C88.9684 82.052 89.0164 81.944 89.0164 81.872C89.0164 81.782 88.9324 81.746 88.7224 81.746H88.4884V81.692H89.5924V81.746H89.5144C89.3164 81.746 89.2264 81.83 88.9984 82.214L88.1584 83.63L89.1124 85.484C89.3284 85.838 89.3824 85.952 89.5924 85.952H89.7064V86.006H88.1764V85.952H88.3144C88.5604 85.952 88.6624 85.904 88.6624 85.802C88.6624 85.73 88.6144 85.634 88.5364 85.508L87.7624 84.002L86.9344 85.484C86.8444 85.64 86.7964 85.748 86.7964 85.82C86.7964 85.916 86.8864 85.952 87.1024 85.952H87.3304V86H86.1484Z" fill="url(#paint18_linear_1_5)"/>
<path d="M91.9676 86V85.946H92.0696C92.2376 85.946 92.3336 85.778 92.4356 85.574L94.2896 81.686H94.7996V81.758C94.7996 81.878 94.8236 82.034 94.8596 82.106L96.4136 85.574C96.5456 85.862 96.5696 85.946 96.8036 85.946H96.8576V86H95.5976V85.946H96.1016V85.934C96.0116 85.904 95.9456 85.754 95.8976 85.652L95.5316 84.83H92.9156L92.5616 85.574C92.5436 85.622 92.5256 85.67 92.5256 85.712C92.5256 85.85 92.6456 85.946 92.8436 85.946H93.1676V86H91.9676ZM92.9696 84.722H95.4836L94.3616 82.22C94.3136 82.124 94.3076 82.046 94.3076 81.98H94.2476C94.2476 82.016 94.2296 82.094 94.1696 82.22L92.9696 84.722Z" fill="url(#paint19_linear_1_5)"/>
<path fill-rule="evenodd" clip-rule="evenodd" d="M40.4592 94.625C43.1512 94.625 45.3188 96.8158 45.3188 99.5C45.3188 101.914 43.566 103.929 41.2552 104.31C40.5956 104.17 40.1106 103.584 40.1106 102.896C40.1106 102.207 39.8862 101.573 39.508 101.062C40.0302 100.869 40.5454 100.556 41.0217 100.078L39.8967 98.9224C39.4124 99.4091 38.8553 99.631 38.2813 99.6856C38.3446 99.4392 38.3783 99.1807 38.3783 98.9145C38.3783 98.1243 39.0181 97.4688 39.8256 97.4688V95.8438C38.1509 95.8438 36.7786 97.2104 36.7786 98.9145C36.7786 99.1143 36.7384 99.3043 36.6651 99.4772L34 97.9908V99.5C34 103.098 36.9 106 40.4592 106C43.7461 106 46.4709 103.525 46.8685 100.312H74.6782C74.6414 100.481 74.6224 100.661 74.6224 100.851C74.6224 101.044 74.5766 101.136 74.5489 101.178C74.5176 101.225 74.4694 101.267 74.3956 101.304C74.3188 101.343 74.2322 101.366 74.158 101.379C74.1228 101.385 74.0766 101.389 74.0766 101.389L74.0781 102.202L74.0854 103.014C74.0854 103.014 74.1632 103.011 74.1922 103.009C74.25 103.005 74.3274 102.997 74.4183 102.982C74.5961 102.952 74.8455 102.891 75.1048 102.761C75.367 102.629 75.6548 102.418 75.8755 102.086C76.0998 101.748 76.222 101.332 76.222 100.851C76.222 100.657 76.2678 100.566 76.2955 100.524C76.3269 100.477 76.3751 100.434 76.4489 100.397C76.5256 100.359 76.6122 100.335 76.6864 100.323C76.7216 100.317 76.7492 100.314 76.765 100.313L79.7717 100.312C79.7349 100.481 79.7159 100.661 79.7159 100.851C79.7159 101.044 79.6701 101.136 79.6424 101.178C79.611 101.225 79.5628 101.267 79.489 101.304C79.4123 101.343 79.3257 101.366 79.2515 101.379C79.2163 101.385 79.1701 101.389 79.1701 101.389L79.1716 102.202L79.1724 103.014C79.1724 103.014 79.2688 103.011 79.2857 103.009C79.3435 103.005 79.4209 102.997 79.5117 102.982C79.6895 102.952 79.939 102.891 80.1982 102.761C80.4605 102.629 80.7483 102.418 80.9689 102.086C81.1933 101.748 81.3155 101.332 81.3155 100.851C81.3155 100.657 81.3613 100.566 81.389 100.524C81.4203 100.477 81.4685 100.434 81.5423 100.397C81.6191 100.359 81.7057 100.335 81.7799 100.323C81.8151 100.317 81.8584 100.313 81.8584 100.313L81.8598 98.6875H78.7963C78.8249 98.5398 78.8395 98.3839 78.8395 98.2203C78.8395 98.0444 78.8809 97.9663 78.9019 97.9345C78.9267 97.8973 78.966 97.8615 79.031 97.8289C79.0989 97.7947 79.1766 97.7736 79.2442 97.7623C79.2761 97.757 79.3184 97.7531 79.3184 97.7531L79.3131 96.9406L79.3058 96.1282C79.3058 96.1282 79.23 96.1306 79.202 96.1326C79.1461 96.1367 79.0715 96.1443 78.984 96.1589C78.8128 96.1876 78.5722 96.2465 78.3218 96.3723C78.0684 96.4996 77.7894 96.7038 77.5754 97.0264C77.3577 97.3546 77.2399 97.7564 77.2399 98.2203C77.2399 98.3963 77.1985 98.4743 77.1775 98.5061C77.1527 98.5433 77.1134 98.5791 77.0484 98.6118C76.9805 98.6459 76.9028 98.667 76.8352 98.6783C76.8033 98.6837 76.7784 98.686 76.7647 98.687L73.6195 98.6875C73.6563 98.5189 73.6753 98.3392 73.6753 98.1492C73.6753 97.9555 73.7211 97.8641 73.7488 97.8223C73.7801 97.7751 73.8284 97.7327 73.9022 97.6956C73.9789 97.657 74.0655 97.6337 74.1397 97.6212C74.1749 97.6153 74.2196 97.6212 74.2196 97.6212V96.7984L74.2162 95.9859C74.2162 95.9859 74.1345 95.9885 74.1055 95.9906C74.0477 95.9948 73.9703 96.0027 73.8795 96.0179C73.7017 96.0476 73.4522 96.1087 73.1929 96.239C72.9307 96.3708 72.6429 96.5816 72.4222 96.9142C72.1979 97.2524 72.0757 97.6675 72.0757 98.1492C72.0757 98.3429 72.0299 98.4343 72.0022 98.4761C71.9709 98.5233 71.9226 98.5658 71.8488 98.6029C71.7721 98.6414 71.6855 98.6648 71.6113 98.6772C71.5761 98.6831 71.5384 98.6864 71.5227 98.6875H46.8685C46.4709 95.4749 43.7461 93 40.4592 93V94.625ZM38.511 102.896C38.511 103.309 38.5916 103.702 38.7376 104.061C37.3281 103.525 36.2346 102.351 35.8017 100.895C36.0427 100.985 36.3072 101.071 36.5886 101.142C36.7404 101.18 36.8993 101.214 37.0637 101.242C37.8712 101.242 38.511 102.106 38.511 102.896Z" fill="url(#paint20_linear_1_5)"/>
<defs>
<linearGradient id="paint0_linear_1_5" x1="58" y1="106" x2="56.5" y2="-3.26635e-06" gradientUnits="userSpaceOnUse">
<stop stop-color="#CBAC70"/>
<stop offset="1" stop-color="#CFA554"/>
</linearGradient>
<linearGradient id="paint1_linear_1_5" x1="58" y1="106" x2="56.5" y2="-3.26635e-06" gradientUnits="userSpaceOnUse">
<stop stop-color="#CBAC70"/>
<stop offset="1" stop-color="#CFA554"/>
</linearGradient>
<linearGradient id="paint2_linear_1_5" x1="58" y1="106" x2="56.5" y2="-3.26635e-06" gradientUnits="userSpaceOnUse">
<stop stop-color="#CBAC70"/>
<stop offset="1" stop-color="#CFA554"/>
</linearGradient>
<linearGradient id="paint3_linear_1_5" x1="58" y1="106" x2="56.5" y2="-3.26635e-06" gradientUnits="userSpaceOnUse">
<stop stop-color="#CBAC70"/>
<stop offset="1" stop-color="#CFA554"/>
</linearGradient>
<linearGradient id="paint4_linear_1_5" x1="58" y1="106" x2="56.5" y2="-3.26635e-06" gradientUnits="userSpaceOnUse">
<stop stop-color="#CBAC70"/>
<stop offset="1" stop-color="#CFA554"/>
</linearGradient>
<linearGradient id="paint5_linear_1_5" x1="58" y1="106" x2="56.5" y2="-3.26635e-06" gradientUnits="userSpaceOnUse">
<stop stop-color="#CBAC70"/>
<stop offset="1" stop-color="#CFA554"/>
</linearGradient>
<linearGradient id="paint6_linear_1_5" x1="58" y1="106" x2="56.5" y2="-3.26635e-06" gradientUnits="userSpaceOnUse">
<stop stop-color="#CBAC70"/>
<stop offset="1" stop-color="#CFA554"/>
</linearGradient>
<linearGradient id="paint7_linear_1_5" x1="58" y1="106" x2="56.5" y2="-3.26635e-06" gradientUnits="userSpaceOnUse">
<stop stop-color="#CBAC70"/>
<stop offset="1" stop-color="#CFA554"/>
</linearGradient>
<linearGradient id="paint8_linear_1_5" x1="58" y1="106" x2="56.5" y2="-3.26635e-06" gradientUnits="userSpaceOnUse">
<stop stop-color="#CBAC70"/>
<stop offset="1" stop-color="#CFA554"/>
</linearGradient>
<linearGradient id="paint9_linear_1_5" x1="58" y1="106" x2="56.5" y2="-3.26635e-06" gradientUnits="userSpaceOnUse">
<stop stop-color="#CBAC70"/>
<stop offset="1" stop-color="#CFA554"/>
</linearGradient>
<linearGradient id="paint10_linear_1_5" x1="58" y1="106" x2="56.5" y2="-3.26635e-06" gradientUnits="userSpaceOnUse">
<stop stop-color="#CBAC70"/>
<stop offset="1" stop-color="#CFA554"/>
</linearGradient>
<linearGradient id="paint11_linear_1_5" x1="58" y1="106" x2="56.5" y2="-3.26635e-06" gradientUnits="userSpaceOnUse">
<stop stop-color="#CBAC70"/>
<stop offset="1" stop-color="#CFA554"/>
</linearGradient>
<linearGradient id="paint12_linear_1_5" x1="58" y1="106" x2="56.5" y2="-3.26635e-06" gradientUnits="userSpaceOnUse">
<stop stop-color="#CBAC70"/>
<stop offset="1" stop-color="#CFA554"/>
</linearGradient>
<linearGradient id="paint13_linear_1_5" x1="58" y1="106" x2="56.5" y2="-3.26635e-06" gradientUnits="userSpaceOnUse">
<stop stop-color="#CBAC70"/>
<stop offset="1" stop-color="#CFA554"/>
</linearGradient>
<linearGradient id="paint14_linear_1_5" x1="58" y1="106" x2="56.5" y2="-3.26635e-06" gradientUnits="userSpaceOnUse">
<stop stop-color="#CBAC70"/>
<stop offset="1" stop-color="#CFA554"/>
</linearGradient>
<linearGradient id="paint15_linear_1_5" x1="58" y1="106" x2="56.5" y2="-3.26635e-06" gradientUnits="userSpaceOnUse">
<stop stop-color="#CBAC70"/>
<stop offset="1" stop-color="#CFA554"/>
</linearGradient>
<linearGradient id="paint16_linear_1_5" x1="58" y1="106" x2="56.5" y2="-3.26635e-06" gradientUnits="userSpaceOnUse">
<stop stop-color="#CBAC70"/>
<stop offset="1" stop-color="#CFA554"/>
</linearGradient>
<linearGradient id="paint17_linear_1_5" x1="58" y1="106" x2="56.5" y2="-3.26635e-06" gradientUnits="userSpaceOnUse">
<stop stop-color="#CBAC70"/>
<stop offset="1" stop-color="#CFA554"/>
</linearGradient>
<linearGradient id="paint18_linear_1_5" x1="58" y1="106" x2="56.5" y2="-3.26635e-06" gradientUnits="userSpaceOnUse">
<stop stop-color="#CBAC70"/>
<stop offset="1" stop-color="#CFA554"/>
</linearGradient>
<linearGradient id="paint19_linear_1_5" x1="58" y1="106" x2="56.5" y2="-3.26635e-06" gradientUnits="userSpaceOnUse">
<stop stop-color="#CBAC70"/>
<stop offset="1" stop-color="#CFA554"/>
</linearGradient>
<linearGradient id="paint20_linear_1_5" x1="58" y1="106" x2="56.5" y2="-3.26635e-06" gradientUnits="userSpaceOnUse">
<stop stop-color="#CBAC70"/>
<stop offset="1" stop-color="#CFA554"/>
</linearGradient>
</defs>
</svg>
